<svg id="Calque_1" data-name="Calque 1" xmlns="http://www.w3.org/2000/svg" viewBox="0 0 511.14 511.03"><path d="M267.68,555.13c1.86-.09,3.33-.22,4.79-.22,25.18,0,50.35.11,75.52-.11,4.51,0,5.58,1.32,5.54,5.65-.19,25-.1,50-.08,75,0,6.34.9,7.24,7.21,7.25q20.25,0,40.51,0c6.12,0,7.3-1.14,7.3-7.28q0-37,0-74V554.9h79.36c7.39,0,7.81-.43,7.81-8q0-19.75,0-39.51c0-6.29-1-7.26-7.21-7.26q-36.76,0-73.52,0h-6.43v-5.88q0-36.75,0-73.5c0-7.44-.61-8-7.89-8q-20.26,0-40.51,0c-5.81,0-6.62.81-6.63,6.69q0,38,0,76c0,1.31-.13,2.61-.22,4.32H267.58c-.08-1.56-.23-3.32-.23-5.07,0-25,.08-50-.07-75a19.85,19.85,0,0,1,6.18-15.14q70.46-70.23,140.82-140.57a10.12,10.12,0,0,1,6.46-2.69q172.8-.19,345.59-.1c8.51,0,12.08,3.67,12.08,12.27q0,172.53-.11,345a10.75,10.75,0,0,1-2.83,6.9q-70.56,70.84-141.33,141.47a17.23,17.23,0,0,1-12.93,5.33q-169.05-.06-338.09,0c-9.91,0-15.73-5.58-15.74-15.37q-.11-99.26,0-198.52C267.36,557.36,267.53,556.54,267.68,555.13Zm326.85-72.44c-1.63-2.07-2.69-3.34-3.67-4.67-14.79-20.13-29.63-40.22-44.29-60.45-2.58-3.56-5.35-5.11-9.9-5-16.66.29-33.33.11-50,.11-1.17,0-2.33,0-3.5,0-2.9,0-3.56,1.41-2.2,3.84a30.77,30.77,0,0,0,2,2.83q37.74,51.3,75.53,102.57c2.62,3.54,2.67,6.16,0,9.73q-38.2,51.27-76.09,102.8c-1.22,1.66-2.45,4.67-1.73,6s3.85,2.15,5.93,2.17c16.49.17,33,0,49.49.15a8.23,8.23,0,0,0,7.49-3.82c9.4-12.93,19-25.73,28.5-38.57l22.25-30c1.6,2.06,2.84,3.59,4,5.17q23.51,31.71,46.94,63.46a8.07,8.07,0,0,0,7.54,3.73c5.66-.22,11.33-.06,17-.06,11.5,0,23,.07,34.5,0,4.75,0,6-2.48,3.47-6.41-.8-1.26-1.75-2.43-2.64-3.63q-36.72-49.59-73.44-99.17c-5-6.7-4.92-6.72.12-13.58q37.3-50.7,74.57-101.43a41.71,41.71,0,0,0,2.72-5.13,17.82,17.82,0,0,0-2.82-.62c-19.17,0-38.33-.14-57.49.11-1.83,0-4.13,1.89-5.37,3.53-10.49,14-20.78,28.13-31.14,42.22C606.57,466.44,600.74,474.29,594.53,482.69Z" transform="translate(-267.28 -261.09)"/></svg>